<?xml version="1.0" encoding="utf-8"?>
<!-- Generator: Adobe Illustrator 24.1.3, SVG Export Plug-In . SVG Version: 6.00 Build 0)  -->
<svg version="1.1" id="Layer_1" xmlns="http://www.w3.org/2000/svg" xmlns:xlink="http://www.w3.org/1999/xlink" x="0px" y="0px"
	 viewBox="0 0 910.41 130.7" style="enable-background:new 0 0 910.41 130.7;" xml:space="preserve">
<style type="text/css">
	.st0{clip-path:url(#SVGID_2_);}
</style>
<g>
	<path d="M708.55,64.34v10.59h-3.68v-9.57c0-2.56-1.54-4.13-4.1-4.13c-3.04,0.03-4.86,2.3-4.86,5.31v8.38h-3.68V51.19h3.68v10.05
		c1.22-2.4,3.39-3.46,6.3-3.46C706.18,57.78,708.55,60.28,708.55,64.34z"/>
	<path d="M723.11,73.85c-1.34,0.8-2.75,1.25-4.19,1.25c-2.56,0-4.77-1.47-4.77-4.96V61.3h-2.4v-2.75h2.4v-4.67h3.65v4.67h5.02v2.75
		h-5.02v8.16c0,1.76,0.67,2.3,1.82,2.3c0.77,0,1.57-0.26,2.56-0.74L723.11,73.85z"/>
	<path d="M736.14,73.85c-1.34,0.8-2.75,1.25-4.19,1.25c-2.56,0-4.77-1.47-4.77-4.96V61.3h-2.4v-2.75h2.4v-4.67h3.65v4.67h5.02v2.75
		h-5.02v8.16c0,1.76,0.67,2.3,1.82,2.3c0.77,0,1.57-0.26,2.56-0.74L736.14,73.85z"/>
	<path d="M757.45,66.49c0,5.09-3.2,8.58-8.06,8.58c-2.72,0-4.77-1.09-6.02-3.07v9.15h-3.68V57.91h3.68v2.94
		c1.25-1.98,3.3-3.07,5.95-3.07C754.15,57.78,757.45,61.3,757.45,66.49z M753.74,66.36c0-3.17-2.14-5.5-5.18-5.5
		c-3.04,0-5.18,2.3-5.18,5.5c0,3.3,2.14,5.57,5.18,5.57C751.59,71.93,753.74,69.62,753.74,66.36z"/>
	<path d="M764.07,63.58c0,1.25-0.86,2.14-2.02,2.14c-1.15,0-2.02-0.9-2.02-2.14c0-1.22,0.86-2.08,2.02-2.08
		C763.21,61.5,764.07,62.36,764.07,63.58z M764.07,73.08c0,1.25-0.86,2.14-2.02,2.14c-1.15,0-2.02-0.9-2.02-2.14
		c0-1.22,0.86-2.08,2.02-2.08C763.21,71,764.07,71.86,764.07,73.08z"/>
	<path d="M764.68,78.68l10.14-29.85h3.14l-10.14,29.85H764.68z"/>
	<path d="M775.27,78.68l10.14-29.85h3.14l-10.14,29.85H775.27z"/>
	<path d="M803.27,60.57l-2.02,2.37c-1.18-1.22-2.82-1.95-4.86-1.92c-2.94,0-5.06,2.21-5.06,5.44c0,3.23,2.11,5.44,5.06,5.44
		c2.14,0,3.87-0.7,5.02-2.05l2.05,2.05c-1.54,2.02-4,3.17-7.23,3.17c-5.06,0-8.58-3.49-8.58-8.61c0-5.15,3.52-8.67,8.58-8.67
		C799.3,57.78,801.7,58.78,803.27,60.57z"/>
	<path d="M820.65,60.57l-2.02,2.37c-1.18-1.22-2.82-1.95-4.86-1.92c-2.94,0-5.06,2.21-5.06,5.44c0,3.23,2.11,5.44,5.06,5.44
		c2.14,0,3.87-0.7,5.02-2.05l2.05,2.05c-1.54,2.02-4,3.17-7.23,3.17c-5.06,0-8.58-3.49-8.58-8.61c0-5.15,3.52-8.67,8.58-8.67
		C816.68,57.78,819.08,58.78,820.65,60.57z"/>
	<path d="M828.65,53.05c0,1.28-0.93,2.21-2.14,2.21c-1.22,0-2.14-0.93-2.14-2.21c0-1.31,0.93-2.24,2.14-2.24
		C827.72,50.81,828.65,51.74,828.65,53.05z M824.68,74.93V57.91h3.65v17.02H824.68z"/>
	<path d="M837.38,75.41c0,4.03-2.78,5.89-5.5,5.89c-1.28,0-2.56-0.42-3.55-1.15l1.22-2.85c0.67,0.48,1.47,0.77,2.18,0.77
		c1.12,0,2.02-0.67,2.02-2.3V57.91h3.65V75.41z M837.83,53.05c0,1.28-0.93,2.24-2.27,2.24c-1.28,0-2.24-0.96-2.24-2.24
		c0-1.31,0.96-2.24,2.24-2.24C836.9,50.81,837.83,51.74,837.83,53.05z"/>
	<path d="M845.73,73.08c0,1.25-0.86,2.14-2.02,2.14c-1.15,0-2.02-0.9-2.02-2.14c0-1.22,0.86-2.08,2.02-2.08
		C844.87,71,845.73,71.86,845.73,73.08z"/>
	<path d="M853.89,53.05c0,1.28-0.93,2.21-2.14,2.21c-1.22,0-2.14-0.93-2.14-2.21c0-1.31,0.93-2.24,2.14-2.24
		C852.97,50.81,853.89,51.74,853.89,53.05z M849.93,74.93V57.91h3.65v17.02H849.93z"/>
	<path d="M875.17,66.42c0,5.12-3.62,8.64-8.86,8.64c-5.28,0-8.89-3.52-8.89-8.64c0-5.15,3.62-8.64,8.89-8.64
		C871.56,57.78,875.17,61.27,875.17,66.42z M861.09,66.46c0,3.3,2.14,5.54,5.21,5.54c3.04,0,5.18-2.24,5.18-5.54
		c0-3.26-2.14-5.5-5.18-5.5C863.24,60.95,861.09,63.19,861.09,66.46z"/>
</g>
<g>
	<g>
		<rect x="649.12" y="21.49" width="4" height="87.06"/>
	</g>
</g>
<g>
	<g>
		<defs>
			<rect id="SVGID_1_" x="31.77" y="33.78" width="579.95" height="63.15"/>
		</defs>
		<clipPath id="SVGID_2_">
			<use xlink:href="#SVGID_1_"  style="overflow:visible;"/>
		</clipPath>
		<path class="st0" d="M31.77,65.57c0-18.28,14.03-31.35,32.91-31.35c10.48,0,19.23,3.81,24.94,10.74l-9.01,8.31
			c-4.07-4.68-9.18-7.1-15.24-7.1c-11.35,0-19.4,7.97-19.4,19.4c0,11.43,8.06,19.4,19.4,19.4c6.06,0,11.17-2.42,15.24-7.19
			l9.01,8.31c-5.72,7.02-14.46,10.83-25.03,10.83C45.8,96.92,31.77,83.84,31.77,65.57L31.77,65.57z"/>
	</g>
	<path d="M93.95,65.57c0-18.28,14.03-31.35,32.91-31.35c10.48,0,19.23,3.81,24.94,10.74l-9.01,8.31c-4.07-4.68-9.18-7.1-15.24-7.1
		c-11.35,0-19.4,7.97-19.4,19.4c0,11.43,8.06,19.4,19.4,19.4c6.06,0,11.17-2.42,15.24-7.19l9.01,8.31
		c-5.72,7.02-14.46,10.83-25.03,10.83C107.99,96.92,93.95,83.84,93.95,65.57L93.95,65.57z"/>
	<polygon points="160.95,34.04 174.94,34.04 174.94,96.75 160.95,96.75 160.95,34.04 	"/>
	<path d="M182.39,87.77l7.93-9.51c3.35,4.49,7.05,6.78,11.45,6.78c5.72,0,8.72-3.43,8.72-10.22V45.49h-21.67V34.04h35.85v39.99
		c0,15.24-7.66,22.72-22.19,22.72C194.19,96.75,186.88,93.58,182.39,87.77L182.39,87.77z"/>
	<path d="M253.84,58.23c-2.17,0-4-0.48-5.47-1.44c-1.47-0.96-2.58-2.3-3.32-4.03c-0.74-1.72-1.11-3.75-1.11-6.07
		c0-2.26,0.39-4.25,1.16-5.97c0.77-1.72,1.92-3.07,3.45-4.04c1.53-0.97,3.42-1.46,5.67-1.46c2.22,0,3.86,0.34,4.94,1.02
		c1.08,0.68,1.61,1.52,1.61,2.52c0,0.71-0.28,1.28-0.83,1.71c-0.55,0.43-1.29,0.64-2.21,0.64c0-0.67-0.12-1.32-0.34-1.94
		c-0.23-0.63-0.61-1.15-1.13-1.57c-0.52-0.42-1.23-0.63-2.13-0.63c-2.28,0-3.88,0.85-4.81,2.54c-0.93,1.69-1.4,4.09-1.4,7.18
		c0,1.92,0.22,3.58,0.66,4.97c0.44,1.39,1.13,2.47,2.09,3.23c0.95,0.76,2.2,1.14,3.75,1.14c1.53,0,2.72-0.28,3.59-0.85
		c0.87-0.56,1.57-1.2,2.12-1.91c0.17,0.13,0.3,0.29,0.41,0.5c0.1,0.21,0.16,0.46,0.16,0.75c0,0.54-0.23,1.1-0.71,1.68
		c-0.47,0.58-1.21,1.06-2.21,1.44C256.76,58.04,255.45,58.23,253.84,58.23L253.84,58.23z"/>
	<path d="M266.54,47.98h6.71c0-1.65-0.24-2.97-0.72-3.95c-0.48-0.98-1.3-1.47-2.45-1.47c-1.09,0-1.93,0.47-2.52,1.4
		C266.96,44.88,266.62,46.23,266.54,47.98L266.54,47.98z M270.43,58.23c-2.38,0-4.23-0.75-5.53-2.26c-1.31-1.51-1.96-3.62-1.96-6.33
		c0-2.95,0.62-5.16,1.87-6.65c1.24-1.48,3.02-2.23,5.31-2.23c2.09,0,3.74,0.63,4.94,1.9c1.2,1.26,1.8,3.14,1.8,5.63v1.47h-10.38
		c0.04,2.24,0.44,3.86,1.21,4.88c0.76,1.01,1.87,1.52,3.31,1.52c1.09,0,2.01-0.23,2.78-0.69c0.76-0.46,1.33-0.99,1.71-1.6
		c0.17,0.08,0.32,0.23,0.45,0.44c0.14,0.21,0.2,0.46,0.2,0.75c0,0.46-0.2,0.94-0.61,1.43c-0.41,0.49-1.03,0.9-1.88,1.24
		C272.79,58.07,271.72,58.23,270.43,58.23L270.43,58.23z"/>
	<path d="M278.55,57.92v-1.41h0.19c0.71,0,1.31-0.13,1.8-0.39c0.49-0.26,0.74-0.87,0.74-1.83v-9.66c0-0.92-0.23-1.5-0.71-1.74
		c-0.47-0.24-1.05-0.36-1.74-0.36h-0.13v-1.41h5.49l0.41,2.45h0.16c0.65-1.17,1.37-1.93,2.16-2.27c0.79-0.34,1.69-0.52,2.7-0.52
		c1.65,0,2.94,0.49,3.86,1.46c0.92,0.97,1.38,2.52,1.38,4.66v7.37c0,0.98,0.2,1.6,0.61,1.87c0.41,0.26,0.97,0.39,1.68,0.39h0.16
		v1.41h-5.89V47.23c0-1.36-0.23-2.41-0.71-3.15c-0.47-0.74-1.29-1.11-2.46-1.11c-0.88,0-1.57,0.24-2.09,0.71
		c-0.51,0.47-0.88,1.08-1.1,1.83c-0.22,0.75-0.33,1.58-0.33,2.48v6.46c0,0.9,0.24,1.47,0.71,1.71c0.47,0.24,1.05,0.36,1.74,0.36
		h0.13v1.41H278.55L278.55,57.92z"/>
	<path d="M305.07,58.23c-1.53,0-2.67-0.36-3.43-1.08c-0.76-0.72-1.14-1.99-1.14-3.81V43h-2.35v-1.35c0.46,0,0.92-0.09,1.4-0.28
		c0.47-0.19,0.87-0.46,1.21-0.82c0.65-0.69,1.13-1.79,1.44-3.29h1.76v3.86h4.08V43h-4.08v10.35c0,1.02,0.2,1.78,0.61,2.26
		c0.41,0.48,0.98,0.72,1.71,0.72c0.38,0,0.73-0.02,1.05-0.06c0.32-0.04,0.65-0.09,0.99-0.16v1.57c-0.29,0.13-0.74,0.25-1.35,0.38
		C306.35,58.17,305.72,58.23,305.07,58.23L305.07,58.23z"/>
	<path d="M313.66,47.98h6.71c0-1.65-0.24-2.97-0.72-3.95c-0.48-0.98-1.3-1.47-2.45-1.47c-1.09,0-1.93,0.47-2.52,1.4
		C314.09,44.88,313.75,46.23,313.66,47.98L313.66,47.98z M317.55,58.23c-2.38,0-4.23-0.75-5.53-2.26c-1.31-1.51-1.96-3.62-1.96-6.33
		c0-2.95,0.62-5.16,1.87-6.65c1.24-1.48,3.01-2.23,5.31-2.23c2.09,0,3.74,0.63,4.94,1.9c1.2,1.26,1.8,3.14,1.8,5.63v1.47H313.6
		c0.04,2.24,0.44,3.86,1.21,4.88c0.76,1.01,1.87,1.52,3.31,1.52c1.09,0,2.01-0.23,2.77-0.69c0.76-0.46,1.33-0.99,1.71-1.6
		c0.17,0.08,0.32,0.23,0.45,0.44c0.14,0.21,0.2,0.46,0.2,0.75c0,0.46-0.2,0.94-0.61,1.43c-0.41,0.49-1.03,0.9-1.88,1.24
		C319.92,58.07,318.85,58.23,317.55,58.23L317.55,58.23z"/>
	<path d="M325.77,57.92v-1.41h0.09c0.71,0,1.31-0.13,1.8-0.39c0.49-0.26,0.74-0.88,0.74-1.87v-9.59c0-0.92-0.24-1.5-0.72-1.76
		c-0.48-0.25-1.07-0.38-1.76-0.38h-0.09v-1.41h5.24l0.6,2.92h0.16c0.27-0.63,0.57-1.19,0.89-1.68c0.32-0.49,0.75-0.88,1.29-1.16
		c0.53-0.28,1.25-0.42,2.15-0.42c1.17,0,2.04,0.21,2.6,0.63c0.56,0.42,0.85,1,0.85,1.76c0,0.73-0.26,1.32-0.77,1.77
		c-0.51,0.45-1.32,0.67-2.43,0.67c0-0.86-0.12-1.49-0.36-1.9c-0.24-0.41-0.66-0.61-1.27-0.61c-0.59,0-1.07,0.22-1.44,0.66
		c-0.38,0.44-0.67,0.99-0.89,1.66c-0.22,0.67-0.37,1.36-0.45,2.07c-0.08,0.71-0.13,1.34-0.13,1.88v5.05c0,0.92,0.25,1.5,0.74,1.74
		c0.49,0.24,1.07,0.36,1.74,0.36h0.91v1.41H325.77L325.77,57.92z"/>
	<path d="M349,57.92v-1.41h0.47c0.42,0,0.82-0.05,1.21-0.16c0.39-0.1,0.69-0.31,0.92-0.61c0.23-0.3,0.34-0.78,0.34-1.43V42.78h-2.82
		v-1.66h2.82v-1.44c0-1.9,0.51-3.36,1.52-4.37c1.01-1.01,2.44-1.52,4.28-1.52c1.73,0,2.94,0.21,3.61,0.63c0.67,0.42,1,0.95,1,1.6
		c0,0.61-0.26,1.07-0.78,1.38c-0.52,0.31-1.23,0.47-2.13,0.47c0-0.59-0.14-1.15-0.42-1.71c-0.28-0.55-0.79-0.83-1.52-0.83
		c-0.8,0-1.34,0.33-1.65,0.99c-0.3,0.66-0.45,1.66-0.45,2.99v1.82h4.39v1.66h-4.39v11.54c0,0.65,0.12,1.12,0.36,1.43
		c0.24,0.3,0.55,0.51,0.92,0.61c0.38,0.1,0.77,0.16,1.19,0.16h1.29v1.41H349L349,57.92z"/>
	<path d="M368.69,56.51c1.46,0,2.49-0.6,3.09-1.79c0.6-1.19,0.89-2.94,0.89-5.24c0-2.32-0.3-4.06-0.89-5.22
		c-0.6-1.16-1.64-1.74-3.12-1.74c-1.48,0-2.52,0.58-3.1,1.74c-0.59,1.16-0.88,2.9-0.88,5.22c0,2.3,0.3,4.04,0.91,5.24
		C366.19,55.91,367.23,56.51,368.69,56.51L368.69,56.51z M368.63,58.23c-2.32,0-4.15-0.72-5.49-2.16c-1.34-1.44-2.01-3.64-2.01-6.58
		c0-2.95,0.64-5.14,1.91-6.57c1.27-1.43,3.17-2.15,5.67-2.15c2.32,0,4.15,0.72,5.49,2.15c1.34,1.43,2.01,3.62,2.01,6.57
		c0,2.95-0.64,5.14-1.93,6.58C373,57.51,371.11,58.23,368.63,58.23L368.63,58.23z"/>
	<path d="M378.16,57.92v-1.41h0.09c0.71,0,1.31-0.13,1.8-0.39c0.49-0.26,0.74-0.88,0.74-1.87v-9.59c0-0.92-0.24-1.5-0.72-1.76
		c-0.48-0.25-1.07-0.38-1.76-0.38h-0.09v-1.41h5.24l0.6,2.92h0.16c0.27-0.63,0.57-1.19,0.89-1.68c0.32-0.49,0.75-0.88,1.29-1.16
		c0.53-0.28,1.25-0.42,2.15-0.42c1.17,0,2.04,0.21,2.6,0.63c0.56,0.42,0.85,1,0.85,1.76c0,0.73-0.26,1.32-0.77,1.77
		c-0.51,0.45-1.32,0.67-2.43,0.67c0-0.86-0.12-1.49-0.36-1.9c-0.24-0.41-0.66-0.61-1.27-0.61c-0.59,0-1.07,0.22-1.44,0.66
		c-0.38,0.44-0.67,0.99-0.89,1.66c-0.22,0.67-0.37,1.36-0.45,2.07c-0.08,0.71-0.13,1.34-0.13,1.88v5.05c0,0.92,0.25,1.5,0.74,1.74
		c0.49,0.24,1.07,0.36,1.74,0.36h0.91v1.41H378.16L378.16,57.92z"/>
	<path d="M412.27,58.23c-2.17,0-4-0.48-5.47-1.44c-1.47-0.96-2.58-2.3-3.32-4.03c-0.74-1.72-1.11-3.75-1.11-6.07
		c0-2.26,0.39-4.25,1.16-5.97c0.77-1.72,1.92-3.07,3.45-4.04c1.53-0.97,3.42-1.46,5.67-1.46c2.22,0,3.86,0.34,4.94,1.02
		c1.08,0.68,1.61,1.52,1.61,2.52c0,0.71-0.28,1.28-0.83,1.71c-0.55,0.43-1.29,0.64-2.21,0.64c0-0.67-0.12-1.32-0.35-1.94
		c-0.23-0.63-0.61-1.15-1.13-1.57c-0.52-0.42-1.23-0.63-2.13-0.63c-2.28,0-3.88,0.85-4.81,2.54c-0.93,1.69-1.4,4.09-1.4,7.18
		c0,1.92,0.22,3.58,0.66,4.97c0.44,1.39,1.13,2.47,2.09,3.23c0.95,0.76,2.2,1.14,3.75,1.14c1.53,0,2.72-0.28,3.59-0.85
		c0.87-0.56,1.57-1.2,2.12-1.91c0.17,0.13,0.3,0.29,0.41,0.5c0.1,0.21,0.16,0.46,0.16,0.75c0,0.54-0.24,1.1-0.71,1.68
		c-0.47,0.58-1.21,1.06-2.21,1.44C415.19,58.04,413.88,58.23,412.27,58.23L412.27,58.23z"/>
	<path d="M428.92,56.51c1.46,0,2.49-0.6,3.09-1.79c0.6-1.19,0.89-2.94,0.89-5.24c0-2.32-0.3-4.06-0.89-5.22
		c-0.6-1.16-1.64-1.74-3.12-1.74c-1.48,0-2.52,0.58-3.1,1.74c-0.59,1.16-0.88,2.9-0.88,5.22c0,2.3,0.3,4.04,0.91,5.24
		C426.42,55.91,427.46,56.51,428.92,56.51L428.92,56.51z M428.86,58.23c-2.32,0-4.15-0.72-5.49-2.16c-1.34-1.44-2.01-3.64-2.01-6.58
		c0-2.95,0.64-5.14,1.91-6.57c1.27-1.43,3.17-2.15,5.67-2.15c2.32,0,4.15,0.72,5.49,2.15c1.34,1.43,2.01,3.62,2.01,6.57
		c0,2.95-0.64,5.14-1.93,6.58C433.23,57.51,431.34,58.23,428.86,58.23L428.86,58.23z"/>
	<path d="M437.92,57.92v-1.41h0.41c0.42,0,0.82-0.05,1.19-0.16c0.38-0.1,0.68-0.31,0.92-0.61c0.24-0.3,0.36-0.78,0.36-1.43V37.57
		c0-0.61-0.12-1.06-0.36-1.35c-0.24-0.29-0.55-0.49-0.94-0.58c-0.39-0.09-0.78-0.14-1.18-0.14h-0.41v-1.41h6.33v20.22
		c0,0.65,0.11,1.12,0.34,1.43c0.23,0.3,0.53,0.51,0.91,0.61c0.38,0.1,0.78,0.16,1.22,0.16h0.38v1.41H437.92L437.92,57.92z"/>
	<path d="M448.01,57.92v-1.41h0.41c0.42,0,0.82-0.05,1.19-0.16c0.38-0.1,0.68-0.31,0.92-0.61c0.24-0.3,0.36-0.78,0.36-1.43V37.57
		c0-0.61-0.12-1.06-0.36-1.35c-0.24-0.29-0.55-0.49-0.94-0.58c-0.39-0.09-0.78-0.14-1.17-0.14h-0.41v-1.41h6.33v20.22
		c0,0.65,0.11,1.12,0.34,1.43c0.23,0.3,0.53,0.51,0.91,0.61c0.38,0.1,0.78,0.16,1.22,0.16h0.38v1.41H448.01L448.01,57.92z"/>
	<path d="M464.44,56.2c1.17,0,2.1-0.39,2.79-1.16c0.69-0.77,1.03-1.81,1.03-3.1v-2.48l-1.85,0.09c-1.61,0.06-2.73,0.41-3.35,1.05
		c-0.63,0.64-0.94,1.55-0.94,2.74C462.12,55.25,462.89,56.2,464.44,56.2L464.44,56.2z M463.44,58.23c-1.4,0-2.56-0.41-3.48-1.22
		c-0.92-0.82-1.38-2.09-1.38-3.83c0-1.65,0.58-2.88,1.76-3.7c1.17-0.82,2.96-1.26,5.36-1.35l2.57-0.09v-1.82
		c0-0.73-0.06-1.38-0.17-1.96c-0.12-0.57-0.36-1.02-0.74-1.35c-0.38-0.32-0.95-0.49-1.73-0.49c-1.09,0-1.8,0.32-2.15,0.97
		c-0.35,0.65-0.52,1.46-0.52,2.45c-1.02,0-1.79-0.15-2.3-0.45c-0.51-0.3-0.77-0.82-0.77-1.55c0-0.73,0.27-1.32,0.8-1.77
		c0.53-0.45,1.24-0.78,2.12-0.99c0.88-0.21,1.86-0.31,2.95-0.31c1.99,0,3.48,0.4,4.47,1.21c0.99,0.81,1.49,2.2,1.49,4.19v8.09
		c0,0.88,0.15,1.47,0.44,1.79c0.29,0.31,0.79,0.47,1.5,0.47h0.09v1.41h-4.67l-0.53-2.54h-0.28c-0.44,0.56-0.87,1.06-1.29,1.49
		c-0.42,0.43-0.9,0.76-1.46,1C464.97,58.11,464.27,58.23,463.44,58.23L463.44,58.23z"/>
	<path d="M485.76,56.13c1.27,0,2.19-0.57,2.76-1.71c0.56-1.14,0.85-2.8,0.85-4.97c0-2.22-0.28-3.87-0.85-4.95
		c-0.56-1.09-1.49-1.63-2.79-1.63c-1.53,0-2.57,0.54-3.12,1.63c-0.55,1.09-0.83,2.75-0.83,4.99c0,2.15,0.28,3.8,0.85,4.94
		C483.19,55.56,484.24,56.13,485.76,56.13L485.76,56.13z M486.51,58.23c-1.21,0-2.2-0.26-2.96-0.77c-0.76-0.51-1.37-1.18-1.83-1.99
		h-0.22l-0.66,2.45h-5.27v-1.41h0.22c0.69,0,1.29-0.13,1.79-0.39c0.5-0.26,0.75-0.87,0.75-1.83V37.63c0-0.92-0.26-1.5-0.77-1.76
		c-0.51-0.25-1.1-0.38-1.77-0.38h-0.22v-1.41h6.21v5.64c0,0.36-0.01,0.8-0.03,1.33c-0.02,0.53-0.04,1.05-0.06,1.55
		c-0.02,0.5-0.04,0.88-0.06,1.13h0.16c0.46-0.92,1.07-1.65,1.82-2.18c0.75-0.53,1.74-0.8,2.95-0.8c2.05,0,3.62,0.7,4.72,2.09
		c1.1,1.39,1.65,3.6,1.65,6.63c0,3.03-0.55,5.25-1.65,6.65C490.17,57.53,488.58,58.23,486.51,58.23L486.51,58.23z"/>
	<path d="M503.79,56.51c1.46,0,2.49-0.6,3.09-1.79c0.6-1.19,0.89-2.94,0.89-5.24c0-2.32-0.3-4.06-0.89-5.22
		c-0.6-1.16-1.64-1.74-3.12-1.74c-1.48,0-2.52,0.58-3.1,1.74c-0.59,1.16-0.88,2.9-0.88,5.22c0,2.3,0.3,4.04,0.91,5.24
		C501.29,55.91,502.33,56.51,503.79,56.51L503.79,56.51z M503.73,58.23c-2.32,0-4.15-0.72-5.49-2.16c-1.34-1.44-2.01-3.64-2.01-6.58
		c0-2.95,0.64-5.14,1.91-6.57c1.27-1.43,3.17-2.15,5.67-2.15c2.32,0,4.15,0.72,5.49,2.15c1.34,1.43,2.01,3.62,2.01,6.57
		c0,2.95-0.64,5.14-1.93,6.58C508.1,57.51,506.21,58.23,503.73,58.23L503.73,58.23z"/>
	<path d="M513.26,57.92v-1.41h0.09c0.71,0,1.31-0.13,1.8-0.39c0.49-0.26,0.74-0.88,0.74-1.87v-9.59c0-0.92-0.24-1.5-0.72-1.76
		c-0.48-0.25-1.07-0.38-1.76-0.38h-0.09v-1.41h5.24l0.6,2.92h0.16c0.27-0.63,0.57-1.19,0.89-1.68c0.32-0.49,0.75-0.88,1.29-1.16
		c0.53-0.28,1.25-0.42,2.15-0.42c1.17,0,2.04,0.21,2.6,0.63c0.56,0.42,0.85,1,0.85,1.76c0,0.73-0.26,1.32-0.77,1.77
		c-0.51,0.45-1.32,0.67-2.43,0.67c0-0.86-0.12-1.49-0.36-1.9c-0.24-0.41-0.66-0.61-1.27-0.61c-0.59,0-1.07,0.22-1.44,0.66
		c-0.38,0.44-0.67,0.99-0.89,1.66c-0.22,0.67-0.37,1.36-0.45,2.07c-0.08,0.71-0.13,1.34-0.13,1.88v5.05c0,0.92,0.25,1.5,0.74,1.74
		c0.49,0.24,1.07,0.36,1.74,0.36h0.91v1.41H513.26L513.26,57.92z"/>
	<path d="M534.33,56.2c1.17,0,2.1-0.39,2.79-1.16c0.69-0.77,1.03-1.81,1.03-3.1v-2.48l-1.85,0.09c-1.61,0.06-2.73,0.41-3.35,1.05
		c-0.63,0.64-0.94,1.55-0.94,2.74C532.01,55.25,532.78,56.2,534.33,56.2L534.33,56.2z M533.33,58.23c-1.4,0-2.56-0.41-3.48-1.22
		c-0.92-0.82-1.38-2.09-1.38-3.83c0-1.65,0.58-2.88,1.76-3.7c1.17-0.82,2.96-1.26,5.36-1.35l2.57-0.09v-1.82
		c0-0.73-0.06-1.38-0.17-1.96c-0.12-0.57-0.36-1.02-0.74-1.35c-0.38-0.32-0.95-0.49-1.72-0.49c-1.09,0-1.8,0.32-2.15,0.97
		c-0.35,0.65-0.52,1.46-0.52,2.45c-1.02,0-1.79-0.15-2.3-0.45c-0.51-0.3-0.77-0.82-0.77-1.55c0-0.73,0.27-1.32,0.8-1.77
		c0.53-0.45,1.24-0.78,2.12-0.99c0.88-0.21,1.86-0.31,2.95-0.31c1.99,0,3.48,0.4,4.47,1.21c0.99,0.81,1.49,2.2,1.49,4.19v8.09
		c0,0.88,0.15,1.47,0.44,1.79c0.29,0.31,0.79,0.47,1.5,0.47h0.09v1.41h-4.67l-0.53-2.54h-0.28c-0.44,0.56-0.87,1.06-1.29,1.49
		c-0.42,0.43-0.9,0.76-1.46,1C534.86,58.11,534.16,58.23,533.33,58.23L533.33,58.23z"/>
	<path d="M551.82,58.23c-1.53,0-2.67-0.36-3.43-1.08c-0.76-0.72-1.14-1.99-1.14-3.81V43h-2.35v-1.35c0.46,0,0.92-0.09,1.39-0.28
		c0.47-0.19,0.87-0.46,1.21-0.82c0.65-0.69,1.13-1.79,1.44-3.29h1.76v3.86h4.08V43h-4.08v10.35c0,1.02,0.2,1.78,0.61,2.26
		c0.41,0.48,0.98,0.72,1.71,0.72c0.38,0,0.73-0.02,1.05-0.06c0.32-0.04,0.65-0.09,0.99-0.16v1.57c-0.29,0.13-0.74,0.25-1.35,0.38
		C553.1,58.17,552.47,58.23,551.82,58.23L551.82,58.23z"/>
	<path d="M560.92,38.07c-0.59,0-1.07-0.16-1.46-0.47c-0.39-0.31-0.58-0.84-0.58-1.57c0-0.75,0.19-1.28,0.58-1.58
		c0.39-0.3,0.87-0.45,1.46-0.45c0.54,0,1.02,0.15,1.43,0.45c0.41,0.3,0.61,0.83,0.61,1.58c0,0.73-0.2,1.25-0.61,1.57
		C561.94,37.92,561.46,38.07,560.92,38.07L560.92,38.07z M556.43,57.92v-1.41h0.41c0.42,0,0.82-0.05,1.19-0.14
		c0.38-0.09,0.68-0.29,0.92-0.58c0.24-0.29,0.36-0.74,0.36-1.35V44.6c0-0.61-0.12-1.06-0.36-1.35c-0.24-0.29-0.55-0.49-0.92-0.58
		c-0.38-0.09-0.77-0.14-1.19-0.14h-0.16v-1.41h6.08v13.2c0,0.65,0.11,1.12,0.34,1.43c0.23,0.3,0.54,0.51,0.92,0.61
		c0.39,0.1,0.79,0.16,1.21,0.16h0.41v1.41H556.43L556.43,57.92z"/>
	<path d="M573.61,57.92l-5.05-13.76c-0.23-0.65-0.52-1.08-0.88-1.3c-0.36-0.22-0.86-0.33-1.51-0.33v-1.41h8.34v1.41h-0.66
		c-1.09,0-1.63,0.46-1.63,1.38c0,0.36,0.08,0.76,0.25,1.22l2.13,5.93c0.27,0.73,0.53,1.53,0.78,2.38c0.25,0.86,0.45,1.56,0.6,2.1
		c0.1-0.46,0.3-1.08,0.58-1.87c0.28-0.78,0.55-1.51,0.8-2.18l2.23-6.15c0.19-0.52,0.28-1,0.28-1.44c0-0.92-0.61-1.38-1.82-1.38
		h-0.41v-1.41h6.74v1.41h-0.44c-0.56,0-0.99,0.15-1.29,0.45c-0.29,0.3-0.63,0.96-1,1.96l-4.83,12.98H573.61L573.61,57.92z"/>
	<path d="M589.73,47.98h6.71c0-1.65-0.24-2.97-0.72-3.95c-0.48-0.98-1.3-1.47-2.45-1.47c-1.09,0-1.93,0.47-2.52,1.4
		C590.15,44.88,589.81,46.23,589.73,47.98L589.73,47.98z M593.62,58.23c-2.38,0-4.23-0.75-5.53-2.26c-1.31-1.51-1.96-3.62-1.96-6.33
		c0-2.95,0.62-5.16,1.86-6.65c1.24-1.48,3.01-2.23,5.31-2.23c2.09,0,3.74,0.63,4.94,1.9c1.2,1.26,1.8,3.14,1.8,5.63v1.47h-10.38
		c0.04,2.24,0.44,3.86,1.21,4.88c0.76,1.01,1.87,1.52,3.31,1.52c1.09,0,2.01-0.23,2.77-0.69c0.76-0.46,1.33-0.99,1.71-1.6
		c0.17,0.08,0.32,0.23,0.45,0.44c0.14,0.21,0.2,0.46,0.2,0.75c0,0.46-0.2,0.94-0.61,1.43c-0.41,0.49-1.03,0.9-1.88,1.24
		C595.99,58.07,594.91,58.23,593.62,58.23L593.62,58.23z"/>
	<path d="M243.27,89.27v-1.41h0.66c0.65,0,1.2-0.13,1.65-0.38c0.45-0.25,0.67-0.86,0.67-1.82V70.49c0-0.96-0.22-1.57-0.67-1.82
		c-0.45-0.25-1-0.38-1.65-0.38h-0.66v-1.41h9.59v1.41h-0.66c-0.63,0-1.17,0.13-1.61,0.38c-0.45,0.25-0.67,0.86-0.67,1.82v15.18
		c0,0.96,0.22,1.57,0.67,1.82c0.45,0.25,0.99,0.38,1.61,0.38h0.66v1.41H243.27L243.27,89.27z"/>
	<path d="M254.78,89.27v-1.41h0.19c0.71,0,1.31-0.13,1.8-0.39c0.49-0.26,0.74-0.87,0.74-1.83v-9.66c0-0.92-0.23-1.5-0.71-1.74
		c-0.47-0.24-1.05-0.36-1.74-0.36h-0.13v-1.41h5.49l0.41,2.45h0.16c0.65-1.17,1.37-1.93,2.16-2.27c0.79-0.34,1.69-0.52,2.7-0.52
		c1.65,0,2.94,0.49,3.86,1.46c0.92,0.97,1.38,2.52,1.38,4.66v7.37c0,0.98,0.2,1.6,0.61,1.87c0.41,0.26,0.97,0.39,1.68,0.39h0.16
		v1.41h-5.9V78.58c0-1.36-0.23-2.41-0.71-3.15c-0.47-0.74-1.29-1.11-2.46-1.11c-0.88,0-1.57,0.24-2.08,0.71
		c-0.51,0.47-0.88,1.08-1.1,1.83c-0.22,0.75-0.33,1.58-0.33,2.48v6.46c0,0.9,0.23,1.47,0.71,1.71c0.47,0.24,1.05,0.36,1.74,0.36
		h0.13v1.41H254.78L254.78,89.27z"/>
	<path d="M281.28,89.27l-5.05-13.76c-0.23-0.65-0.52-1.08-0.88-1.3c-0.36-0.22-0.86-0.33-1.51-0.33v-1.41h8.34v1.41h-0.66
		c-1.09,0-1.63,0.46-1.63,1.38c0,0.36,0.08,0.76,0.25,1.22l2.13,5.93c0.27,0.73,0.53,1.53,0.78,2.38c0.25,0.86,0.45,1.56,0.6,2.1
		c0.1-0.46,0.3-1.08,0.58-1.87c0.28-0.78,0.55-1.51,0.8-2.18l2.23-6.15c0.19-0.52,0.28-1,0.28-1.44c0-0.92-0.61-1.38-1.82-1.38
		h-0.41v-1.41h6.74v1.41h-0.44c-0.56,0-0.99,0.15-1.29,0.45c-0.29,0.3-0.63,0.96-1,1.96l-4.83,12.98H281.28L281.28,89.27z"/>
	<path d="M296.76,79.34h6.71c0-1.65-0.24-2.97-0.72-3.95c-0.48-0.98-1.3-1.47-2.45-1.47c-1.09,0-1.93,0.47-2.52,1.4
		C297.19,76.24,296.85,77.58,296.76,79.34L296.76,79.34z M300.65,89.59c-2.38,0-4.23-0.75-5.53-2.26c-1.31-1.51-1.96-3.62-1.96-6.33
		c0-2.95,0.62-5.16,1.87-6.65c1.24-1.48,3.01-2.23,5.31-2.23c2.09,0,3.74,0.63,4.94,1.9c1.2,1.26,1.8,3.14,1.8,5.63v1.47H296.7
		c0.04,2.24,0.44,3.86,1.21,4.88c0.76,1.01,1.87,1.52,3.31,1.52c1.09,0,2.01-0.23,2.78-0.69c0.76-0.46,1.33-0.99,1.71-1.6
		c0.17,0.08,0.32,0.23,0.45,0.44c0.14,0.21,0.2,0.46,0.2,0.75c0,0.46-0.2,0.94-0.61,1.43c-0.41,0.49-1.03,0.9-1.88,1.24
		C303.02,89.42,301.95,89.59,300.65,89.59L300.65,89.59z"/>
	<path d="M315.36,89.59c-1.78,0-3.14-0.3-4.08-0.89c-0.94-0.6-1.41-1.44-1.41-2.52c0-0.61,0.13-1.07,0.38-1.38
		c0.25-0.31,0.55-0.53,0.89-0.66c0.35-0.13,0.66-0.19,0.96-0.19c0,1.17,0.27,2.14,0.8,2.9c0.53,0.76,1.4,1.14,2.59,1.14
		c1.11,0,1.94-0.25,2.51-0.74c0.56-0.49,0.85-1.13,0.85-1.93c0-0.5-0.11-0.92-0.33-1.25c-0.22-0.33-0.61-0.66-1.18-0.97
		c-0.56-0.31-1.35-0.68-2.35-1.1c-1.09-0.46-1.99-0.91-2.71-1.36c-0.72-0.45-1.26-0.98-1.61-1.6c-0.36-0.62-0.53-1.38-0.53-2.3
		c0-1.48,0.56-2.62,1.68-3.4c1.12-0.78,2.6-1.18,4.44-1.18c1.63,0,2.84,0.29,3.64,0.88c0.79,0.59,1.19,1.25,1.19,2.01
		c0,0.61-0.21,1.09-0.63,1.44c-0.42,0.36-1.05,0.53-1.88,0.53c0-1.04-0.22-1.86-0.67-2.45c-0.45-0.59-1.13-0.88-2.05-0.88
		c-0.96,0-1.68,0.21-2.15,0.64c-0.47,0.43-0.71,1-0.71,1.71c0,0.77,0.3,1.37,0.89,1.8c0.6,0.43,1.64,0.92,3.12,1.49
		c1.57,0.65,2.74,1.34,3.53,2.08c0.78,0.74,1.18,1.77,1.18,3.09c0,1.67-0.57,2.94-1.72,3.79C318.82,89.16,317.28,89.59,315.36,89.59
		L315.36,89.59z"/>
	<path d="M330.59,89.59c-1.53,0-2.67-0.36-3.43-1.08c-0.76-0.72-1.14-1.99-1.14-3.81V74.35h-2.35V73c0.46,0,0.92-0.09,1.4-0.28
		c0.47-0.19,0.87-0.46,1.21-0.82c0.65-0.69,1.13-1.79,1.44-3.29h1.76v3.86h4.08v1.88h-4.08V84.7c0,1.02,0.2,1.78,0.61,2.26
		c0.41,0.48,0.98,0.72,1.71,0.72c0.38,0,0.73-0.02,1.05-0.06c0.32-0.04,0.65-0.09,0.99-0.16v1.57c-0.29,0.13-0.74,0.25-1.35,0.38
		C331.87,89.53,331.24,89.59,330.59,89.59L330.59,89.59z"/>
	<path d="M340.31,69.43c-0.59,0-1.07-0.16-1.46-0.47c-0.39-0.31-0.58-0.84-0.58-1.57c0-0.75,0.19-1.28,0.58-1.58
		c0.39-0.3,0.87-0.45,1.46-0.45c0.54,0,1.02,0.15,1.43,0.45c0.41,0.3,0.61,0.83,0.61,1.58c0,0.73-0.2,1.25-0.61,1.57
		C341.33,69.27,340.86,69.43,340.31,69.43L340.31,69.43z M335.83,89.27v-1.41h0.41c0.42,0,0.82-0.05,1.19-0.14
		c0.38-0.09,0.68-0.29,0.93-0.58c0.24-0.29,0.36-0.74,0.36-1.35v-9.84c0-0.61-0.12-1.06-0.36-1.35c-0.24-0.29-0.55-0.49-0.93-0.58
		c-0.38-0.09-0.77-0.14-1.19-0.14h-0.16v-1.41h6.08v13.2c0,0.65,0.11,1.12,0.34,1.43c0.23,0.3,0.54,0.51,0.92,0.61
		c0.39,0.1,0.79,0.16,1.21,0.16h0.41v1.41H335.83L335.83,89.27z"/>
	<path d="M353.45,81.69c0.96,0,1.64-0.32,2.02-0.96c0.39-0.64,0.58-1.6,0.58-2.9c0-1.36-0.19-2.38-0.58-3.06
		c-0.39-0.68-1.07-1.02-2.05-1.02c-0.96,0-1.64,0.35-2.04,1.05c-0.4,0.7-0.6,1.72-0.6,3.06c0,1.28,0.2,2.23,0.61,2.87
		C351.8,81.37,352.49,81.69,353.45,81.69L353.45,81.69z M352.82,95.17c1.42,0,2.54-0.15,3.36-0.45c0.82-0.3,1.39-0.72,1.73-1.25
		c0.33-0.53,0.5-1.16,0.5-1.9c0-0.88-0.26-1.47-0.78-1.79c-0.52-0.31-1.26-0.47-2.23-0.47h-3.23c-0.54,0-1.07,0.07-1.57,0.22
		c-0.5,0.15-0.91,0.42-1.24,0.83c-0.32,0.41-0.49,1-0.49,1.77c0,0.9,0.29,1.63,0.86,2.19C350.31,94.89,351.34,95.17,352.82,95.17
		L352.82,95.17z M352.76,96.8c-2.26,0-3.94-0.39-5.06-1.18c-1.12-0.78-1.68-1.9-1.68-3.34c0-1.19,0.39-2.1,1.16-2.73
		c0.77-0.63,1.72-1.02,2.85-1.19c-0.48-0.19-0.91-0.5-1.3-0.94c-0.39-0.44-0.58-1-0.58-1.69c0-0.65,0.19-1.21,0.58-1.68
		c0.39-0.47,0.94-0.93,1.68-1.36c-0.9-0.36-1.61-0.96-2.15-1.82c-0.53-0.86-0.8-1.84-0.8-2.95c0-1.8,0.5-3.21,1.51-4.25
		c1-1.03,2.53-1.55,4.58-1.55c0.75,0,1.46,0.1,2.12,0.31c0.66,0.21,1.15,0.45,1.49,0.72c0.38-0.42,0.82-0.81,1.35-1.18
		c0.52-0.37,1.11-0.55,1.76-0.55c0.67,0,1.17,0.17,1.49,0.5c0.32,0.33,0.49,0.72,0.49,1.16c0,0.46-0.14,0.86-0.41,1.19
		c-0.27,0.33-0.74,0.5-1.41,0.5c0-0.29-0.08-0.55-0.25-0.78c-0.17-0.23-0.44-0.34-0.82-0.34c-0.46,0-0.89,0.12-1.29,0.34
		c0.4,0.46,0.72,1,0.96,1.63c0.24,0.63,0.36,1.37,0.36,2.23c0,1.57-0.48,2.86-1.43,3.89c-0.95,1.02-2.42,1.54-4.41,1.54
		c-0.25,0-0.55-0.02-0.89-0.05c-0.34-0.03-0.61-0.07-0.8-0.11c-0.38,0.19-0.7,0.44-0.97,0.75c-0.27,0.31-0.41,0.69-0.41,1.13
		c0,0.38,0.12,0.66,0.36,0.85c0.24,0.19,0.73,0.28,1.46,0.28h3.61c1.92,0,3.3,0.44,4.14,1.32c0.84,0.88,1.25,2.02,1.25,3.42
		c0,1.84-0.69,3.29-2.07,4.34C357.84,96.27,355.69,96.8,352.76,96.8L352.76,96.8z"/>
	<path d="M369.32,87.55c1.17,0,2.1-0.39,2.79-1.16c0.69-0.77,1.03-1.81,1.03-3.1v-2.48l-1.85,0.09c-1.61,0.06-2.73,0.41-3.35,1.05
		c-0.63,0.64-0.94,1.55-0.94,2.74C367,86.6,367.77,87.55,369.32,87.55L369.32,87.55z M368.31,89.59c-1.4,0-2.56-0.41-3.48-1.22
		c-0.92-0.81-1.38-2.09-1.38-3.83c0-1.65,0.58-2.88,1.76-3.7c1.17-0.82,2.96-1.26,5.36-1.35l2.57-0.09v-1.82
		c0-0.73-0.06-1.38-0.17-1.96c-0.12-0.57-0.36-1.02-0.74-1.35c-0.38-0.32-0.95-0.49-1.72-0.49c-1.09,0-1.8,0.32-2.15,0.97
		c-0.35,0.65-0.52,1.46-0.52,2.45c-1.02,0-1.79-0.15-2.3-0.45c-0.51-0.3-0.77-0.82-0.77-1.55c0-0.73,0.27-1.32,0.8-1.77
		c0.53-0.45,1.24-0.78,2.12-0.99c0.88-0.21,1.86-0.31,2.95-0.31c1.99,0,3.47,0.4,4.47,1.21c0.99,0.81,1.49,2.2,1.49,4.19v8.09
		c0,0.88,0.15,1.47,0.44,1.79c0.29,0.31,0.79,0.47,1.5,0.47h0.09v1.41h-4.67l-0.53-2.54h-0.28c-0.44,0.56-0.87,1.06-1.29,1.49
		c-0.42,0.43-0.9,0.76-1.46,1C369.84,89.47,369.15,89.59,368.31,89.59L368.31,89.59z"/>
	<path d="M386.81,89.59c-1.53,0-2.67-0.36-3.43-1.08c-0.76-0.72-1.14-1.99-1.14-3.81V74.35h-2.35V73c0.46,0,0.92-0.09,1.4-0.28
		c0.47-0.19,0.87-0.46,1.21-0.82c0.65-0.69,1.13-1.79,1.44-3.29h1.76v3.86h4.08v1.88h-4.08V84.7c0,1.02,0.2,1.78,0.61,2.26
		c0.41,0.48,0.98,0.72,1.71,0.72c0.38,0,0.73-0.02,1.05-0.06c0.32-0.04,0.65-0.09,0.99-0.16v1.57c-0.29,0.13-0.74,0.25-1.35,0.38
		C388.09,89.53,387.46,89.59,386.81,89.59L386.81,89.59z"/>
	<path d="M396.53,69.43c-0.59,0-1.07-0.16-1.46-0.47c-0.39-0.31-0.58-0.84-0.58-1.57c0-0.75,0.19-1.28,0.58-1.58
		c0.39-0.3,0.87-0.45,1.46-0.45c0.54,0,1.02,0.15,1.43,0.45c0.41,0.3,0.61,0.83,0.61,1.58c0,0.73-0.2,1.25-0.61,1.57
		C397.55,69.27,397.07,69.43,396.53,69.43L396.53,69.43z M392.05,89.27v-1.41h0.41c0.42,0,0.81-0.05,1.19-0.14
		c0.38-0.09,0.68-0.29,0.92-0.58c0.24-0.29,0.36-0.74,0.36-1.35v-9.84c0-0.61-0.12-1.06-0.36-1.35c-0.24-0.29-0.55-0.49-0.92-0.58
		c-0.38-0.09-0.77-0.14-1.19-0.14h-0.16v-1.41h6.08v13.2c0,0.65,0.11,1.12,0.34,1.43c0.23,0.3,0.54,0.51,0.92,0.61
		c0.39,0.1,0.79,0.16,1.21,0.16h0.41v1.41H392.05L392.05,89.27z"/>
	<path d="M409.23,89.27l-5.05-13.76c-0.23-0.65-0.52-1.08-0.88-1.3c-0.36-0.22-0.86-0.33-1.51-0.33v-1.41h8.34v1.41h-0.66
		c-1.09,0-1.63,0.46-1.63,1.38c0,0.36,0.08,0.76,0.25,1.22l2.13,5.93c0.27,0.73,0.53,1.53,0.78,2.38c0.25,0.86,0.45,1.56,0.6,2.1
		c0.1-0.46,0.3-1.08,0.58-1.87c0.28-0.78,0.55-1.51,0.8-2.18l2.23-6.15c0.19-0.52,0.28-1,0.28-1.44c0-0.92-0.61-1.38-1.82-1.38
		h-0.41v-1.41h6.74v1.41h-0.44c-0.56,0-0.99,0.15-1.29,0.45c-0.29,0.3-0.63,0.96-1,1.96l-4.83,12.98H409.23L409.23,89.27z"/>
	<path d="M425.34,79.34h6.71c0-1.65-0.24-2.97-0.72-3.95c-0.48-0.98-1.3-1.47-2.45-1.47c-1.09,0-1.93,0.47-2.52,1.4
		C425.77,76.24,425.43,77.58,425.34,79.34L425.34,79.34z M429.23,89.59c-2.38,0-4.23-0.75-5.53-2.26c-1.31-1.51-1.96-3.62-1.96-6.33
		c0-2.95,0.62-5.16,1.86-6.65c1.24-1.48,3.01-2.23,5.31-2.23c2.09,0,3.74,0.63,4.94,1.9c1.2,1.26,1.8,3.14,1.8,5.63v1.47h-10.38
		c0.04,2.24,0.44,3.86,1.21,4.88c0.76,1.01,1.87,1.52,3.31,1.52c1.09,0,2.01-0.23,2.77-0.69c0.76-0.46,1.33-0.99,1.71-1.6
		c0.17,0.08,0.32,0.23,0.46,0.44c0.14,0.21,0.2,0.46,0.2,0.75c0,0.46-0.2,0.94-0.61,1.43c-0.41,0.49-1.03,0.9-1.88,1.24
		C431.6,89.42,430.53,89.59,429.23,89.59L429.23,89.59z"/>
	<path d="M444.88,96.8v-1.57h0.38c0.84,0,1.56-0.18,2.18-0.53c0.62-0.36,1.1-0.95,1.44-1.79c0.35-0.84,0.52-1.98,0.52-3.42V70.37
		c0-0.9-0.23-1.47-0.69-1.71c-0.46-0.24-0.99-0.36-1.6-0.36h-0.66v-1.41h9.59v1.41h-0.66c-0.65,0-1.2,0.13-1.65,0.38
		c-0.45,0.25-0.67,0.86-0.67,1.82v18.97c0,1.88-0.34,3.36-1.02,4.42c-0.68,1.07-1.58,1.82-2.71,2.26c-1.13,0.44-2.38,0.66-3.76,0.66
		H444.88L444.88,96.8z"/>
	<path d="M464.82,87.86c1.46,0,2.49-0.6,3.09-1.79c0.6-1.19,0.89-2.94,0.89-5.24c0-2.32-0.3-4.06-0.89-5.22
		c-0.6-1.16-1.64-1.74-3.12-1.74c-1.48,0-2.52,0.58-3.1,1.74c-0.59,1.16-0.88,2.9-0.88,5.22c0,2.3,0.3,4.04,0.91,5.24
		C462.32,87.27,463.36,87.86,464.82,87.86L464.82,87.86z M464.76,89.59c-2.32,0-4.15-0.72-5.49-2.16c-1.34-1.44-2.01-3.64-2.01-6.58
		c0-2.95,0.64-5.14,1.91-6.57c1.27-1.43,3.17-2.15,5.67-2.15c2.32,0,4.15,0.72,5.49,2.15c1.34,1.43,2.01,3.62,2.01,6.57
		c0,2.95-0.64,5.14-1.93,6.58C469.13,88.87,467.24,89.59,464.76,89.59L464.76,89.59z"/>
	<path d="M481.81,89.59c-1.65,0-2.92-0.49-3.81-1.47c-0.89-0.98-1.33-2.55-1.33-4.7v-7.37c0-0.92-0.23-1.51-0.69-1.77
		c-0.46-0.26-1.05-0.39-1.76-0.39h-0.09v-1.41h5.99v10.6c0,1.36,0.21,2.42,0.64,3.18c0.43,0.76,1.23,1.14,2.4,1.14
		c1.28,0,2.2-0.45,2.78-1.36c0.57-0.91,0.86-2.12,0.86-3.62v-6.33c0-0.65-0.12-1.13-0.34-1.44c-0.23-0.31-0.53-0.52-0.91-0.61
		c-0.38-0.09-0.78-0.14-1.22-0.14h-0.09v-1.41h6.02v13.33c0,0.92,0.24,1.49,0.72,1.72c0.48,0.23,1.05,0.34,1.72,0.34h0.13v1.41
		h-5.33l-0.47-2.45h-0.16c-0.65,1.15-1.4,1.9-2.26,2.24C483.75,89.42,482.82,89.59,481.81,89.59L481.81,89.59z"/>
	<path d="M494.48,89.27v-1.41h0.09c0.71,0,1.31-0.13,1.8-0.39c0.49-0.26,0.74-0.88,0.74-1.87v-9.59c0-0.92-0.24-1.5-0.72-1.76
		c-0.48-0.25-1.07-0.38-1.76-0.38h-0.09v-1.41h5.24l0.6,2.92h0.16c0.27-0.63,0.57-1.19,0.89-1.68c0.32-0.49,0.75-0.88,1.29-1.16
		c0.53-0.28,1.25-0.42,2.15-0.42c1.17,0,2.04,0.21,2.6,0.63c0.56,0.42,0.85,1,0.85,1.76c0,0.73-0.26,1.32-0.77,1.77
		c-0.51,0.45-1.32,0.67-2.43,0.67c0-0.86-0.12-1.49-0.36-1.9c-0.24-0.41-0.66-0.61-1.27-0.61c-0.59,0-1.07,0.22-1.44,0.66
		c-0.38,0.44-0.67,0.99-0.89,1.66c-0.22,0.67-0.37,1.36-0.46,2.07c-0.08,0.71-0.12,1.34-0.12,1.88v5.05c0,0.92,0.25,1.5,0.74,1.74
		c0.49,0.24,1.07,0.36,1.74,0.36h0.91v1.41H494.48L494.48,89.27z"/>
	<path d="M510.22,89.27v-1.41h0.19c0.71,0,1.31-0.13,1.8-0.39c0.49-0.26,0.74-0.87,0.74-1.83v-9.66c0-0.92-0.23-1.5-0.71-1.74
		c-0.47-0.24-1.05-0.36-1.74-0.36h-0.13v-1.41h5.49l0.41,2.45h0.16c0.65-1.17,1.37-1.93,2.16-2.27c0.79-0.34,1.69-0.52,2.7-0.52
		c1.65,0,2.94,0.49,3.86,1.46c0.92,0.97,1.38,2.52,1.38,4.66v7.37c0,0.98,0.2,1.6,0.61,1.87c0.41,0.26,0.97,0.39,1.68,0.39h0.16
		v1.41h-5.89V78.58c0-1.36-0.23-2.41-0.71-3.15c-0.47-0.74-1.29-1.11-2.46-1.11c-0.88,0-1.57,0.24-2.08,0.71
		c-0.51,0.47-0.88,1.08-1.1,1.83c-0.22,0.75-0.33,1.58-0.33,2.48v6.46c0,0.9,0.24,1.47,0.71,1.71c0.47,0.24,1.05,0.36,1.74,0.36
		h0.13v1.41H510.22L510.22,89.27z"/>
	<path d="M536.59,87.55c1.17,0,2.1-0.39,2.79-1.16c0.69-0.77,1.03-1.81,1.03-3.1v-2.48l-1.85,0.09c-1.61,0.06-2.73,0.41-3.36,1.05
		c-0.63,0.64-0.94,1.55-0.94,2.74C534.27,86.6,535.04,87.55,536.59,87.55L536.59,87.55z M535.58,89.59c-1.4,0-2.56-0.41-3.48-1.22
		c-0.92-0.81-1.38-2.09-1.38-3.83c0-1.65,0.58-2.88,1.76-3.7c1.17-0.82,2.96-1.26,5.36-1.35l2.57-0.09v-1.82
		c0-0.73-0.06-1.38-0.17-1.96c-0.12-0.57-0.36-1.02-0.74-1.35c-0.38-0.32-0.95-0.49-1.72-0.49c-1.09,0-1.8,0.32-2.15,0.97
		c-0.35,0.65-0.52,1.46-0.52,2.45c-1.02,0-1.79-0.15-2.3-0.45c-0.51-0.3-0.77-0.82-0.77-1.55c0-0.73,0.27-1.32,0.8-1.77
		c0.53-0.45,1.24-0.78,2.12-0.99c0.88-0.21,1.86-0.31,2.95-0.31c1.99,0,3.47,0.4,4.47,1.21c0.99,0.81,1.49,2.2,1.49,4.19v8.09
		c0,0.88,0.15,1.47,0.44,1.79c0.29,0.31,0.79,0.47,1.5,0.47h0.09v1.41h-4.67l-0.53-2.54h-0.28c-0.44,0.56-0.87,1.06-1.29,1.49
		c-0.42,0.43-0.9,0.76-1.46,1C537.12,89.47,536.42,89.59,535.58,89.59L535.58,89.59z"/>
	<path d="M547.59,89.27v-1.41H548c0.42,0,0.82-0.05,1.19-0.16c0.38-0.1,0.68-0.31,0.92-0.61c0.24-0.3,0.36-0.78,0.36-1.43V68.93
		c0-0.61-0.12-1.06-0.36-1.35c-0.24-0.29-0.55-0.49-0.94-0.58c-0.39-0.09-0.78-0.14-1.18-0.14h-0.41v-1.41h6.33v20.22
		c0,0.65,0.11,1.12,0.34,1.43c0.23,0.3,0.53,0.51,0.91,0.61c0.38,0.1,0.78,0.16,1.22,0.16h0.38v1.41H547.59L547.59,89.27z"/>
	<path d="M563.02,69.43c-0.59,0-1.07-0.16-1.46-0.47c-0.39-0.31-0.58-0.84-0.58-1.57c0-0.75,0.19-1.28,0.58-1.58
		c0.39-0.3,0.87-0.45,1.46-0.45c0.54,0,1.02,0.15,1.43,0.45c0.41,0.3,0.61,0.83,0.61,1.58c0,0.73-0.2,1.25-0.61,1.57
		C564.04,69.27,563.56,69.43,563.02,69.43L563.02,69.43z M558.53,89.27v-1.41h0.41c0.42,0,0.82-0.05,1.19-0.14
		c0.38-0.09,0.68-0.29,0.92-0.58c0.24-0.29,0.36-0.74,0.36-1.35v-9.84c0-0.61-0.12-1.06-0.36-1.35c-0.24-0.29-0.55-0.49-0.92-0.58
		c-0.38-0.09-0.77-0.14-1.19-0.14h-0.16v-1.41h6.08v13.2c0,0.65,0.11,1.12,0.34,1.43c0.23,0.3,0.54,0.51,0.92,0.61
		c0.39,0.1,0.79,0.16,1.21,0.16h0.41v1.41H558.53L558.53,89.27z"/>
	<path d="M574.96,89.59c-1.78,0-3.14-0.3-4.08-0.89c-0.94-0.6-1.41-1.44-1.41-2.52c0-0.61,0.13-1.07,0.38-1.38
		c0.25-0.31,0.55-0.53,0.89-0.66c0.34-0.13,0.66-0.19,0.96-0.19c0,1.17,0.27,2.14,0.8,2.9c0.53,0.76,1.4,1.14,2.59,1.14
		c1.11,0,1.94-0.25,2.51-0.74c0.56-0.49,0.85-1.13,0.85-1.93c0-0.5-0.11-0.92-0.33-1.25c-0.22-0.33-0.61-0.66-1.18-0.97
		c-0.56-0.31-1.35-0.68-2.35-1.1c-1.09-0.46-1.99-0.91-2.71-1.36c-0.72-0.45-1.26-0.98-1.61-1.6c-0.36-0.62-0.53-1.38-0.53-2.3
		c0-1.48,0.56-2.62,1.68-3.4c1.12-0.78,2.6-1.18,4.44-1.18c1.63,0,2.84,0.29,3.64,0.88c0.79,0.59,1.19,1.25,1.19,2.01
		c0,0.61-0.21,1.09-0.63,1.44c-0.42,0.36-1.05,0.53-1.88,0.53c0-1.04-0.22-1.86-0.67-2.45c-0.45-0.59-1.13-0.88-2.05-0.88
		c-0.96,0-1.68,0.21-2.15,0.64c-0.47,0.43-0.71,1-0.71,1.71c0,0.77,0.3,1.37,0.89,1.8c0.6,0.43,1.63,0.92,3.12,1.49
		c1.57,0.65,2.74,1.34,3.53,2.08c0.78,0.74,1.18,1.77,1.18,3.09c0,1.67-0.58,2.94-1.72,3.79C578.42,89.16,576.89,89.59,574.96,89.59
		L574.96,89.59z"/>
	<path d="M583.46,89.27v-1.41h0.31c0.71,0,1.29-0.13,1.74-0.39c0.45-0.26,0.67-0.87,0.67-1.83v-9.69c0-0.9-0.22-1.47-0.67-1.72
		c-0.45-0.25-1.02-0.38-1.71-0.38h-0.09v-1.38h5.39l0.41,2.45h0.16c0.63-1.17,1.33-1.93,2.12-2.27c0.78-0.34,1.67-0.52,2.65-0.52
		c1.05,0,1.98,0.21,2.79,0.63c0.82,0.42,1.41,1.14,1.79,2.16h0.28c0.63-1.17,1.36-1.93,2.21-2.27c0.85-0.34,1.75-0.52,2.71-0.52
		c1.59,0,2.84,0.49,3.76,1.46c0.92,0.97,1.38,2.52,1.38,4.66v7.37c0,0.98,0.21,1.6,0.63,1.87c0.42,0.26,0.98,0.39,1.69,0.39h0.09
		v1.41h-5.86V78.58c0-1.36-0.23-2.41-0.69-3.15c-0.46-0.74-1.25-1.11-2.38-1.11c-0.82,0-1.46,0.21-1.94,0.64
		c-0.48,0.43-0.83,0.99-1.03,1.68c-0.21,0.69-0.31,1.45-0.31,2.29v6.68c0,0.98,0.21,1.6,0.63,1.87c0.42,0.26,0.98,0.39,1.69,0.39
		h0.09v1.41h-5.86V78.58c0-1.36-0.23-2.41-0.69-3.15c-0.46-0.74-1.25-1.11-2.38-1.11c-0.86,0-1.53,0.24-2.02,0.71
		c-0.49,0.47-0.84,1.08-1.05,1.83c-0.21,0.75-0.31,1.58-0.31,2.48v6.46c0,0.9,0.24,1.47,0.72,1.71c0.48,0.24,1.07,0.36,1.76,0.36
		h0.09v1.41H583.46L583.46,89.27z"/>
</g>
</svg>
